<?xml version="1.0" encoding="UTF-8" standalone="no"?>
<!-- Created with Inkscape (http://www.inkscape.org/) -->

<svg
   xmlns:dc="http://purl.org/dc/elements/1.1/"
   xmlns:cc="http://creativecommons.org/ns#"
   xmlns:rdf="http://www.w3.org/1999/02/22-rdf-syntax-ns#"
   xmlns:svg="http://www.w3.org/2000/svg"
   xmlns="http://www.w3.org/2000/svg"
   xmlns:sodipodi="http://sodipodi.sourceforge.net/DTD/sodipodi-0.dtd"
   xmlns:inkscape="http://www.inkscape.org/namespaces/inkscape"
   version="1.1"
   id="svg3732"
   xml:space="preserve"
   width="768.66669"
   height="386"
   viewBox="0 0 768.66669 386"
   sodipodi:docname="17209.svg"
   inkscape:export-filename="/home/mrbrunelli/Downloads/17209.png"
   inkscape:export-xdpi="96"
   inkscape:export-ydpi="96"
   inkscape:version="0.92.3 (2405546, 2018-03-11)"><metadata
     id="metadata3738"><rdf:RDF><cc:Work
         rdf:about=""><dc:format>image/svg+xml</dc:format><dc:type
           rdf:resource="http://purl.org/dc/dcmitype/StillImage" /><dc:title></dc:title></cc:Work></rdf:RDF></metadata><defs
     id="defs3736"><clipPath
       clipPathUnits="userSpaceOnUse"
       id="clipPath3750"><path
         d="M 5760,0 H 0 V 2880 H 5760 V 0 M 1107.08,793.73 h 0.24 c 249.92,0 499.83,0 749.75,0 h 0.24 c 0.18,0 0.35,0 0.52,0 37.44,0 74.62,15.739 100.71,42.11 26.49,26.219 42.26,63.621 42.11,101.23 v 0.289 c 0,0 -0.24,4.692 -0.71,14.051 -1.26,9.25 -2.97,23.52 -10.35,40.891 -7.12,17.329 -19.99,37.669 -41.48,55.749 -21.47,17.55 -53.09,32.63 -90.94,32.65 0,-7.88 0,-11.83 0,-11.83 0,-3.94 0,-7.88 0,-11.83 0,-3.94 0,-7.88 0,-11.83 0,-3.95 0,-7.89 0,-11.83 v 0 0 c 0,3.94 0,7.88 0,11.83 0,3.95 0,7.89 0,11.83 0,3.95 0,7.89 0,11.83 0,0 0,3.95 0,11.83 -499.89,0 -749.85,0 -749.85,0 h -0.24 c -0.18,0 -0.35,0 -0.52,0 -37.43,0 -74.61,-15.74 -100.71,-42.11 -26.495,-26.21 -42.252,-63.621 -42.104,-101.231 v -0.289 c -0.148,-37.609 15.609,-75.011 42.104,-101.23 26.09,-26.371 63.28,-42.11 100.71,-42.11 0.17,0 0.34,0 0.52,0"
         id="path3748"
         inkscape:connector-curvature="0" /></clipPath><radialGradient
       fx="0.12510793"
       fy="-0.018290633"
       cx="0.12510793"
       cy="-0.018290633"
       r="1"
       gradientUnits="userSpaceOnUse"
       gradientTransform="matrix(5145.57,0,0,-5145.57,2604.25,2055.49)"
       spreadMethod="pad"
       id="radialGradient3758"><stop
         style="stop-opacity:1;stop-color:#ffffff"
         offset="0"
         id="stop3752" /><stop
         style="stop-opacity:1;stop-color:#ffffff"
         offset="0.123656"
         id="stop3754" /><stop
         style="stop-opacity:1;stop-color:#cfcecd"
         offset="1"
         id="stop3756" /></radialGradient><clipPath
       clipPathUnits="userSpaceOnUse"
       id="clipPath4034"><path
         d="m 1857.07,793.73 c -249.92,0 -499.83,0 -749.75,0 h -0.24 c -0.18,0 -0.35,0 -0.52,0 -37.43,0 -74.62,15.739 -100.71,42.11 -26.495,26.219 -42.252,63.621 -42.104,101.23 v 0.289 c -0.148,37.61 15.609,75.021 42.104,101.231 26.1,26.37 63.28,42.11 100.71,42.11 0.17,0 0.34,0 0.52,0 h 0.24 c 0,0 249.96,0 749.85,0 0,-7.88 0,-11.83 0,-11.83 0,-3.94 0,-7.88 0,-11.83 0,-3.94 0,-7.88 0,-11.83 0,-3.95 0,-7.89 0,-11.83 v 0 h -749.94 c -52.89,0 -96.17,-43.271 -96.17,-96.161 0,-52.891 43.28,-96.168 96.17,-96.168 h 749.94 c 52.89,0 96.16,43.277 96.16,96.168 0,52.89 -43.27,96.161 -96.16,96.161 v 0 0 c 0,3.94 0,7.88 0,11.83 0,3.95 0,7.89 0,11.83 0,3.95 0,7.89 0,11.83 0,0 0,3.95 0,11.83 37.85,-0.02 69.47,-15.1 90.94,-32.65 21.49,-18.08 34.36,-38.42 41.48,-55.749 7.38,-17.371 9.09,-31.641 10.35,-40.891 0.47,-9.359 0.71,-14.051 0.71,-14.051 v -0.289 c 0.15,-37.609 -15.62,-75.011 -42.11,-101.23 -26.09,-26.371 -63.27,-42.11 -100.71,-42.11 -0.17,0 -0.34,0 -0.52,0 h -0.24"
         id="path4032"
         inkscape:connector-curvature="0" /></clipPath><clipPath
       clipPathUnits="userSpaceOnUse"
       id="clipPath4046"><path
         d="m 1857.17,841.051 h -749.94 c -52.89,0 -96.17,43.277 -96.17,96.168 0,52.89 43.28,96.161 96.17,96.161 h 749.94 c 52.89,0 96.16,-43.271 96.16,-96.161 0,-52.891 -43.27,-96.168 -96.16,-96.168"
         id="path4044"
         inkscape:connector-curvature="0" /></clipPath><radialGradient
       fx="0"
       fy="0"
       cx="0"
       cy="0"
       r="1"
       gradientUnits="userSpaceOnUse"
       gradientTransform="matrix(5145.57,0,0,-5145.57,2604.25,2055.49)"
       spreadMethod="pad"
       id="radialGradient4054"><stop
         style="stop-opacity:1;stop-color:#f0f0f0"
         offset="0"
         id="stop4048" /><stop
         style="stop-opacity:1;stop-color:#f0f0f0"
         offset="0.123656"
         id="stop4050" /><stop
         style="stop-opacity:1;stop-color:#c0bebc"
         offset="1"
         id="stop4052" /></radialGradient><clipPath
       clipPathUnits="userSpaceOnUse"
       id="clipPath4080"><path
         d="M 5,15 H 5765 V 2895 H 5 Z"
         id="path4078"
         inkscape:connector-curvature="0" /></clipPath></defs><sodipodi:namedview
     pagecolor="#ffffff"
     bordercolor="#666666"
     borderopacity="1"
     objecttolerance="10"
     gridtolerance="10"
     guidetolerance="10"
     inkscape:pageopacity="0"
     inkscape:pageshadow="2"
     inkscape:window-width="1920"
     inkscape:window-height="989"
     id="namedview3734"
     showgrid="false"
     inkscape:zoom="1.992228"
     inkscape:cx="254.57912"
     inkscape:cy="193"
     inkscape:window-x="0"
     inkscape:window-y="0"
     inkscape:window-maximized="1"
     inkscape:current-layer="g3740" /><g
     id="g3740"
     inkscape:groupmode="layer"
     inkscape:label="ink_ext_XXXXXX"
     transform="matrix(1.3333333,0,0,-1.3333333,0,386)"><g
       id="g3742"
       transform="scale(0.1)"><g
         id="g3744"><g
           id="g3746"
           clip-path="url(#clipPath3750)"><path
             d="M 5760,0 H 0 V 2880 H 5760 V 0 M 1107.08,793.73 h 0.24 c 249.92,0 499.83,0 749.75,0 h 0.24 c 0.18,0 0.35,0 0.52,0 37.44,0 74.62,15.739 100.71,42.11 26.49,26.219 42.26,63.621 42.11,101.23 v 0.289 c 0,0 -0.24,4.692 -0.71,14.051 -1.26,9.25 -2.97,23.52 -10.35,40.891 -7.12,17.329 -19.99,37.669 -41.48,55.749 -21.47,17.55 -53.09,32.63 -90.94,32.65 0,-7.88 0,-11.83 0,-11.83 0,-3.94 0,-7.88 0,-11.83 0,-3.94 0,-7.88 0,-11.83 0,-3.95 0,-7.89 0,-11.83 v 0 0 c 0,3.94 0,7.88 0,11.83 0,3.95 0,7.89 0,11.83 0,3.95 0,7.89 0,11.83 0,0 0,3.95 0,11.83 -499.89,0 -749.85,0 -749.85,0 h -0.24 c -0.18,0 -0.35,0 -0.52,0 -37.43,0 -74.61,-15.74 -100.71,-42.11 -26.495,-26.21 -42.252,-63.621 -42.104,-101.231 v -0.289 c -0.148,-37.609 15.609,-75.011 42.104,-101.23 26.09,-26.371 63.28,-42.11 100.71,-42.11 0.17,0 0.34,0 0.52,0"
             style="fill:url(#radialGradient3758);fill-opacity:1;fill-rule:nonzero;stroke:none"
             id="path3760"
             inkscape:connector-curvature="0" /></g></g><path
         d="m 1294.71,1300.6 c -0.77,0.78 -1.16,1.73 -1.16,2.84 0,1.12 0.39,2.05 1.16,2.82 0.76,0.77 1.71,1.16 2.81,1.16 1.11,0 2.06,-0.39 2.85,-1.16 0.79,-0.77 1.18,-1.7 1.18,-2.82 0,-1.11 -0.39,-2.06 -1.18,-2.84 -0.79,-0.79 -1.74,-1.18 -2.85,-1.18 -1.1,0 -2.05,0.39 -2.81,1.18"
         style="fill:#b7b6b5;fill-opacity:1;fill-rule:nonzero;stroke:none"
         id="path3888"
         inkscape:connector-curvature="0" /><g
         id="g4028"><g
           id="g4030"
           clip-path="url(#clipPath4034)"><g
             id="g4036"
             transform="matrix(1052.2,0,0,304.2,954.9,786.9)" /></g></g><g
         id="g4040"><g
           id="g4042"
           clip-path="url(#clipPath4046)" /></g><g
         id="g4074"><g
           id="g4076"
           clip-path="url(#clipPath4080)"><path
             d="m 6013.89,1849.89 -545.89,32.19 441.05,267.43 105.95,-82.49 0.02,5.93 -104.37,81.26 -2.66,0.15 -448.86,-272.18 c -0.88,-0.53 -1.31,-1.57 -1.06,-2.57 0.25,-1 1.11,-1.71 2.13,-1.78 l 553.66,-32.64 0.03,4.7"
             style="fill:#c4c2c1;fill-opacity:1;fill-rule:nonzero;stroke:none"
             id="path4082"
             inkscape:connector-curvature="0" /><path
             d="m 6008.28,750.66 -283.3,-162.578 -213.96,57.148 497.7,190.579 0.02,5.043 -506.17,-193.821 c -0.93,-0.359 -1.55,-1.301 -1.49,-2.312 0.05,-1.02 0.75,-1.879 1.73,-2.149 l 221.89,-59.281 0.6,-0.078 1.18,0.309 281.77,161.71 0.03,5.43"
             style="fill:#c4c2c1;fill-opacity:1;fill-rule:nonzero;stroke:none"
             id="path4084"
             inkscape:connector-curvature="0" /><path
             d="m 3611.19,1208.39 23.03,-111.34 546.95,177.4 z m 21.26,-116.73 -1.18,0.32 -1.11,1.55 -24.09,116.43 0.39,1.85 1.63,0.95 595.97,69.06 c 1.27,0.19 2.31,-0.65 2.57,-1.82 0.25,-1.19 -0.43,-2.37 -1.58,-2.74 l -571.87,-185.49 -0.73,-0.11"
             style="fill:#c4c2c1;fill-opacity:1;fill-rule:nonzero;stroke:none"
             id="path4086"
             inkscape:connector-curvature="0" /><path
             d="m 1775.61,-147.809 277.62,-177.121 196.36,510.141 z m 278.77,-182.98 -1.25,0.371 -283,180.539 -1.09,1.938 1,1.961 483.16,339.46 2.79,-0.07 c 0.82,-0.64 1.12,-1.73 0.75,-2.691 l -200.16,-520 -1.46,-1.399 -0.74,-0.109"
             style="fill:#c4c2c1;fill-opacity:1;fill-rule:nonzero;stroke:none"
             id="path4088"
             inkscape:connector-curvature="0" /><path
             d="m 2057.78,-326.148 847.72,-13.524 -649.92,527.383 z m 854.46,-18.321 h -0.03 l -857.86,13.68 -1.91,1.027 -0.24,2.16 200.16,520 1.58,1.434 2.09,-0.453 657.7,-533.688 c 0.77,-0.621 1.06,-1.679 0.72,-2.609 -0.34,-0.941 -1.22,-1.562 -2.21,-1.551"
             style="fill:#c4c2c1;fill-opacity:1;fill-rule:nonzero;stroke:none"
             id="path4090"
             inkscape:connector-curvature="0" /><path
             d="m 4208.87,1280.2 981.52,-394.079 -484.6,803.629 z M 5196,878.988 l -0.86,0.172 -991.68,398.15 -1.45,1.83 0.83,2.16 502.06,413.8 1.88,0.51 1.61,-1.1 489.63,-811.959 -0.21,-2.742 -1.81,-0.821"
             style="fill:#c4c2c1;fill-opacity:1;fill-rule:nonzero;stroke:none"
             id="path4092"
             inkscape:connector-curvature="0" /><path
             d="M 4709.76,1692.24 5192.9,891.051 5115.7,1873.77 Z M 5196,878.988 l -1.99,1.133 -489.63,811.959 -0.23,1.91 1.28,1.44 411.39,183.98 2.15,-0.12 1.14,-1.83 78.24,-995.94 c 0.09,-1.09 -0.58,-2.09 -1.62,-2.418 l -0.73,-0.114"
             style="fill:#c4c2c1;fill-opacity:1;fill-rule:nonzero;stroke:none"
             id="path4094"
             inkscape:connector-curvature="0" /><path
             d="m 5120.31,1874.95 76.96,-979.688 260.02,982.538 z M 5196,878.988 5195.81,879 c -1.15,0.102 -2.05,1.012 -2.13,2.148 l -78.25,995.932 0.62,1.78 1.71,0.76 342.57,2.9 1.87,-0.9 0.41,-2.04 -264.32,-998.842 c -0.28,-1.047 -1.22,-1.758 -2.29,-1.75"
             style="fill:#c4c2c1;fill-opacity:1;fill-rule:nonzero;stroke:none"
             id="path4096"
             inkscape:connector-curvature="0" /><path
             d="M 6008.74,840.84 5503.8,647.5 l -301.72,232.129 807.3,86.512 0.02,4.718 -813.63,-87.187 c -0.96,-0.113 -1.75,-0.774 -2.02,-1.703 -0.25,-0.918 0.07,-1.91 0.83,-2.489 l 307.41,-236.5 1.41,-0.48 0.86,0.148 504.46,193.172 0.02,5.02"
             style="fill:#c4c2c1;fill-opacity:1;fill-rule:nonzero;stroke:none"
             id="path4098"
             inkscape:connector-curvature="0" /><path
             d="m 5456.59,2198.03 -332.91,-318.36 334.3,2.83 z m -338.83,-323.1 c -0.95,0 -1.8,0.58 -2.16,1.46 l 0.56,2.57 341.13,326.24 2.54,0.46 c 0.86,-0.37 1.42,-1.21 1.42,-2.15 l 1.44,-323.32 c 0.01,-1.3 -1.03,-2.35 -2.32,-2.36 l -342.57,-2.9 h -0.04"
             style="fill:#c4c2c1;fill-opacity:1;fill-rule:nonzero;stroke:none"
             id="path4100"
             inkscape:connector-curvature="0" /><path
             d="m 6017.08,2476.27 -555.83,-269.03 -1.62,1484.95 559.92,-733.81 0.03,7.69 -560.43,734.5 c -0.61,0.8 -1.67,1.12 -2.62,0.79 -0.95,-0.31 -1.59,-1.22 -1.59,-2.22 l 1.63,-1495.64 1.09,-1.98 1.24,-0.37 1.03,0.24 557.13,269.66 0.02,5.22"
             style="fill:#c4c2c1;fill-opacity:1;fill-rule:nonzero;stroke:none"
             id="path4102"
             inkscape:connector-curvature="0" /><path
             d="m 5461.26,2200.87 1.41,-316.54 439.45,266.47 z m -0.93,-323.04 -1.14,0.3 -1.2,2.04 -1.42,323.32 0.77,1.76 1.83,0.58 450.31,-51.14 c 0.99,-0.12 1.81,-0.85 2.03,-1.83 0.21,-0.97 -0.23,-1.98 -1.08,-2.5 l -448.87,-272.19 -1.23,-0.34"
             style="fill:#c4c2c1;fill-opacity:1;fill-rule:nonzero;stroke:none"
             id="path4104"
             inkscape:connector-curvature="0" /><path
             d="m 6016.1,2283.05 -107.87,-128.21 -441.01,50.08 549.84,266.13 0.02,5.23 -559.19,-270.67 c -0.94,-0.45 -1.47,-1.47 -1.29,-2.5 0.17,-1.04 1,-1.82 2.05,-1.94 l 450.3,-51.14 0.25,-0.01 1.81,0.82 105.05,124.87 0.04,7.34"
             style="fill:#c4c2c1;fill-opacity:1;fill-rule:nonzero;stroke:none"
             id="path4106"
             inkscape:connector-curvature="0" /><path
             d="m 2911.59,-344.379 521.25,-152.141 17.04,-0.089 -531.33,155.089 942.52,485.168 -227.71,-641.187 4.97,-0.031 229.15,645.242 c 0.32,0.898 0.05,1.91 -0.67,2.539 l -2.63,0.328 -953.01,-490.57 c -0.85,-0.449 -1.35,-1.36 -1.26,-2.321 0.09,-0.957 0.76,-1.757 1.68,-2.027"
             style="fill:#c4c2c1;fill-opacity:1;fill-rule:nonzero;stroke:none"
             id="path4108"
             inkscape:connector-curvature="0" /><path
             d="M 3638.33,-497.57 3866.6,145.199 4484.65,-154.719 3723.3,-498 l 11.28,-0.059 756.58,341.118 c 0.83,0.382 1.36,1.203 1.37,2.113 0.02,0.91 -0.5,1.75 -1.31,2.148 l -624.94,303.239 -1.91,0.062 -1.32,-1.379 -229.68,-646.781 4.96,-0.031"
             style="fill:#c4c2c1;fill-opacity:1;fill-rule:nonzero;stroke:none"
             id="path4110"
             inkscape:connector-curvature="0" /><path
             d="m 3646.42,1086.43 260.11,-195.93 152.79,45.66 z m 259.64,-200.86 -1.41,0.469 -273.6,206.091 c -0.93,0.7 -1.21,1.97 -0.65,3 0.55,1.02 1.78,1.48 2.87,1.08 l 434.32,-158.062 c 0.95,-0.339 1.58,-1.269 1.55,-2.269 -0.03,-1.008 -0.71,-1.899 -1.67,-2.18 l -160.73,-48.027 -0.68,-0.102"
             style="fill:#c4c2c1;fill-opacity:1;fill-rule:nonzero;stroke:none"
             id="path4112"
             inkscape:connector-curvature="0" /><path
             d="m 3639.67,1093.88 425.78,-154.95 134.84,336.78 z m 427.11,-160.278 -0.8,0.136 -434.32,158.062 c -0.94,0.34 -1.57,1.25 -1.55,2.24 0.02,1.01 0.67,1.89 1.62,2.2 l 571.88,185.48 2.43,-0.62 0.47,-2.48 -137.54,-343.55 c -0.37,-0.91 -1.26,-1.48 -2.19,-1.468"
             style="fill:#c4c2c1;fill-opacity:1;fill-rule:nonzero;stroke:none"
             id="path4114"
             inkscape:connector-curvature="0" /><path
             d="m 3908.32,886.141 -39.39,-713.911 194.56,760.282 z m -43.07,-740.039 -0.34,0.027 c -1.19,0.18 -2.06,1.25 -1.99,2.453 l 40.81,739.469 c 0.04,0.98 0.72,1.828 1.67,2.121 l 160.72,48.019 2.29,-0.55 0.66,-2.27 -201.54,-787.5 c -0.26,-1.051 -1.22,-1.769 -2.28,-1.769"
             style="fill:#c4c2c1;fill-opacity:1;fill-rule:nonzero;stroke:none"
             id="path4116"
             inkscape:connector-curvature="0" /><path
             d="M 4070.19,938.129 5182.2,884.352 4205.63,1276.44 Z M 5196,878.988 h -0.1 l -1129.23,54.614 -1.85,1.078 -0.21,2.14 137.54,343.55 1.25,1.28 1.8,0.02 991.69,-398.158 c 1.06,-0.422 1.66,-1.563 1.42,-2.684 -0.24,-1.078 -1.21,-1.848 -2.31,-1.84"
             style="fill:#c4c2c1;fill-opacity:1;fill-rule:nonzero;stroke:none"
             id="path4118"
             inkscape:connector-curvature="0" /><path
             d="m 4091.61,2170.25 114.5,-886.25 496.53,409.24 z m 112.71,-893.1 -0.86,0.16 -1.45,1.88 -115.78,896.12 c -0.13,0.94 0.33,1.86 1.16,2.33 l 2.61,-0.18 617.83,-482.32 0.91,-1.82 -0.85,-1.84 -502.06,-413.79 -1.51,-0.54"
             style="fill:#c4c2c1;fill-opacity:1;fill-rule:nonzero;stroke:none"
             id="path4120"
             inkscape:connector-curvature="0" /><path
             d="m 4093.06,2175.06 610.38,-476.5 -78.66,715.07 z m 613.31,-484.11 -1.42,0.5 -617.85,482.31 -0.88,2.13 1.36,1.86 538.22,241.48 2.12,-0.1 1.18,-1.78 79.63,-723.8 c 0.09,-0.94 -0.38,-1.85 -1.2,-2.31 l -1.16,-0.29"
             style="fill:#c4c2c1;fill-opacity:1;fill-rule:nonzero;stroke:none"
             id="path4122"
             inkscape:connector-curvature="0" /><path
             d="m 4372.74,3481.89 255.02,-1058.94 824.54,1272.81 z m 254,-1067.15 -0.38,0.03 c -0.93,0.16 -1.66,0.86 -1.88,1.77 l -256.88,1066.64 0.31,1.8 1.52,1.04 1087.4,215.43 c 0.91,0.18 1.88,-0.21 2.39,-0.99 l 0.03,-2.59 -830.52,-1282.05 -1.99,-1.08"
             style="fill:#c4c2c1;fill-opacity:1;fill-rule:nonzero;stroke:none"
             id="path4124"
             inkscape:connector-curvature="0" /><path
             d="m 4629.88,2410.17 78.48,-713.42 405.49,181.34 z m 76.49,-719.22 -1.15,0.3 -1.16,1.78 -79.63,723.8 c -0.12,1.02 0.44,1.98 1.37,2.4 0.91,0.41 2.01,0.19 2.69,-0.56 l 491.02,-539.82 0.56,-2.06 -1.33,-1.66 -411.4,-183.98 -0.97,-0.2"
             style="fill:#c4c2c1;fill-opacity:1;fill-rule:nonzero;stroke:none"
             id="path4126"
             inkscape:connector-curvature="0" /><path
             d="m 4633.77,2412.87 484.13,-532.24 336.33,321.64 z m 483.99,-537.94 h -0.07 l -1.65,0.76 -491.02,539.82 -0.27,2.79 c 0.54,0.88 1.57,1.33 2.59,1.06 l 832.16,-213.58 1.68,-1.69 -0.65,-2.28 -341.13,-326.23 -1.64,-0.65"
             style="fill:#c4c2c1;fill-opacity:1;fill-rule:nonzero;stroke:none"
             id="path4128"
             inkscape:connector-curvature="0" /><path
             d="m 4630.5,2418.55 826.06,-212.02 -1.61,1484.68 z m 828.4,-217.4 -0.57,0.08 -832.15,213.58 -1.6,1.42 0.21,2.13 830.53,1282.05 c 0.55,0.88 1.61,1.27 2.62,0.98 1,-0.29 1.69,-1.2 1.69,-2.25 l 1.62,-1495.64 -0.9,-1.86 -1.45,-0.49"
             style="fill:#c4c2c1;fill-opacity:1;fill-rule:nonzero;stroke:none"
             id="path4130"
             inkscape:connector-curvature="0" /><path
             d="M 4068.23,932.102 3868.45,151.43 4915.74,346.691 Z m -202.98,-786 -1.7,0.75 -0.57,2.179 201.54,787.489 1.45,1.621 2.15,-0.262 854.92,-590.527 c 0.78,-0.532 1.15,-1.493 0.96,-2.422 -0.2,-0.93 -0.93,-1.641 -1.87,-1.809 l -1056.44,-196.98 -0.44,-0.039"
             style="fill:#c4c2c1;fill-opacity:1;fill-rule:nonzero;stroke:none"
             id="path4132"
             inkscape:connector-curvature="0" /><path
             d="m 3872.7,147.449 616.88,-299.347 425.98,493.789 z m 617.48,-304.59 -1.01,0.231 -624.93,303.25 c -0.91,0.441 -1.44,1.422 -1.31,2.422 0.14,1.008 0.9,1.808 1.91,2 L 4921.27,347.73 c 0.99,0.18 1.98,-0.269 2.48,-1.14 l -0.27,-2.699 -431.51,-500.211 -1.79,-0.821"
             style="fill:#c4c2c1;fill-opacity:1;fill-rule:nonzero;stroke:none"
             id="path4134"
             inkscape:connector-curvature="0" /><path
             d="m 4074.89,933.199 845.95,-584.328 271.43,530.301 z m 846.8,-590.117 -1.31,0.406 -854.93,590.524 c -0.86,0.597 -1.22,1.699 -0.88,2.687 0.33,0.992 1.34,1.602 2.33,1.59 l 1129.23,-54.609 1.92,-1.168 0.05,-2.25 -274.31,-535.91 -1.51,-1.211 -0.59,-0.059"
             style="fill:#c4c2c1;fill-opacity:1;fill-rule:nonzero;stroke:none"
             id="path4136"
             inkscape:connector-curvature="0" /><path
             d="m 4494.2,-153.73 286.94,-101.809 136.16,592.258 z m 288.63,-107.25 -0.77,0.14 -292.66,103.832 -1.48,1.61 0.49,2.128 431.53,500.219 c 0.69,0.821 1.86,1.039 2.83,0.563 0.97,-0.481 1.46,-1.563 1.23,-2.614 l -138.88,-604.058 -1.15,-1.531 -1.14,-0.289"
             style="fill:#c4c2c1;fill-opacity:1;fill-rule:nonzero;stroke:none"
             id="path4138"
             inkscape:connector-curvature="0" /><path
             d="m 4923.06,340.852 -137.22,-596.864 692.51,60.821 z m -140.23,-601.832 -1.76,0.812 -0.52,2.059 138.87,604.058 1.62,1.723 2.29,-0.563 561.99,-542.507 0.58,-2.473 c -0.3,-0.867 -1.09,-1.469 -2.01,-1.547 l -700.85,-61.551 -0.21,-0.011"
             style="fill:#c4c2c1;fill-opacity:1;fill-rule:nonzero;stroke:none"
             id="path4140"
             inkscape:connector-curvature="0" /><path
             d="m 5196.82,877.75 -269.7,-526.898 571.94,294.378 z m -275.13,-534.668 -1.65,0.68 c -0.71,0.718 -0.88,1.82 -0.43,2.726 l 274.32,535.91 1.57,1.223 1.95,-0.43 307.4,-236.492 0.91,-2.07 -1.26,-1.879 -581.72,-299.422 -1.09,-0.246"
             style="fill:#c4c2c1;fill-opacity:1;fill-rule:nonzero;stroke:none"
             id="path4142"
             inkscape:connector-curvature="0" /><path
             d="m 4926.23,344.32 556.34,-537.07 239.2,774.801 z m 557.45,-543.75 -1.62,0.668 -561.99,542.5 -0.64,2.242 1.61,1.692 803.6,240.129 2.34,-0.59 0.57,-2.352 -241.62,-782.64 -1.66,-1.571 -0.59,-0.078"
             style="fill:#c4c2c1;fill-opacity:1;fill-rule:nonzero;stroke:none"
             id="path4144"
             inkscape:connector-curvature="0" /><path
             d="m 5503.69,642.34 -558.41,-287.43 771.41,230.52 z m -582,-299.258 c -0.92,0 -1.79,0.559 -2.16,1.469 -0.45,1.121 0.03,2.398 1.1,2.961 l 581.71,299.418 1.69,0.172 221.88,-59.282 c 1.02,-0.269 1.73,-1.179 1.75,-2.23 0.01,-1.051 -0.67,-1.981 -1.68,-2.281 l -803.6,-240.137 -0.69,-0.09"
             style="fill:#c4c2c1;fill-opacity:1;fill-rule:nonzero;stroke:none"
             id="path4146"
             inkscape:connector-curvature="0" /><path
             d="M 2116.05,433.27 1464.02,51.4492 2250.89,193.289 Z M 1451.42,44.4492 c -0.97,0 -1.85,0.6016 -2.19,1.5313 -0.4,1.0703 0.03,2.2695 1.01,2.8398 l 665.5,389.6997 1.79,0.242 1.44,-1.114 137.62,-244.937 0.08,-2.152 -1.71,-1.297 -803.12,-144.7737 -0.42,-0.0391"
             style="fill:#c4c2c1;fill-opacity:1;fill-rule:nonzero;stroke:none"
             id="path4148"
             inkscape:connector-curvature="0" /><path
             d="m 2120.55,434.82 134.38,-239.14 266.78,318.859 z m 133.99,-245.601 -0.21,0.011 -1.83,1.192 -137.62,244.93 -0.09,2.128 1.67,1.321 410.87,81.64 c 0.96,0.188 1.97,-0.242 2.47,-1.101 l -0.22,-2.711 -273.23,-326.578 -1.81,-0.832"
             style="fill:#c4c2c1;fill-opacity:1;fill-rule:nonzero;stroke:none"
             id="path4150"
             inkscape:connector-curvature="0" /><path
             d="m 3417.15,1839.41 -0.57,0.08 c -1.26,0.32 -2.01,1.6 -1.69,2.86 l 129.07,497.11 c 0.32,1.25 1.59,2.02 2.86,1.68 1.25,-0.32 2.01,-1.6 1.68,-2.86 l -129.07,-497.11 c -0.27,-1.06 -1.23,-1.76 -2.28,-1.76"
             style="fill:#c4c2c1;fill-opacity:1;fill-rule:nonzero;stroke:none"
             id="path4152"
             inkscape:connector-curvature="0" /><path
             d="m 3547.89,2335.92 -127.16,-489.77 661.47,328.92 z m -130.74,-496.51 -1.47,0.53 -0.79,2.41 129.07,497.11 1.12,1.45 1.82,0.2 542.32,-163.26 c 0.92,-0.27 1.59,-1.09 1.66,-2.05 0.09,-0.95 -0.43,-1.87 -1.29,-2.29 l -671.38,-333.85 -1.06,-0.25"
             style="fill:#c4c2c1;fill-opacity:1;fill-rule:nonzero;stroke:none"
             id="path4154"
             inkscape:connector-curvature="0" /><path
             d="m 3421.41,1835.84 188.63,-622.85 587.97,68.13 z m 186.94,-627.75 c -1.01,0 -1.93,0.66 -2.23,1.66 l -191.2,631.33 c -0.29,0.96 0.06,2 0.88,2.58 l 2.73,0.01 787.16,-562.27 c 0.79,-0.56 1.15,-1.55 0.91,-2.49 -0.24,-0.95 -1.04,-1.63 -2,-1.75 l -595.96,-69.06 -0.29,-0.01"
             style="fill:#c4c2c1;fill-opacity:1;fill-rule:nonzero;stroke:none"
             id="path4156"
             inkscape:connector-curvature="0" /><path
             d="m 3421.71,1841.4 779.6,-556.87 -114.66,887.51 z m 782.61,-564.25 -1.36,0.43 -787.16,562.27 -0.98,2.09 1.3,1.92 671.38,333.85 2.15,-0.03 1.22,-1.77 115.79,-896.12 c 0.12,-0.92 -0.33,-1.83 -1.13,-2.31 l -1.21,-0.33"
             style="fill:#c4c2c1;fill-opacity:1;fill-rule:nonzero;stroke:none"
             id="path4158"
             inkscape:connector-curvature="0" /><path
             d="m 3607,1205.49 -388.81,-419.689 411.67,309.189 z m -408.26,-439.592 -1.73,0.774 c -0.82,0.91 -0.81,2.289 0.02,3.168 l 409.62,442.19 2.35,0.66 1.67,-1.79 24.09,-116.42 -0.89,-2.35 -433.71,-325.759 -1.42,-0.473"
             style="fill:#c4c2c1;fill-opacity:1;fill-rule:nonzero;stroke:none"
             id="path4160"
             inkscape:connector-curvature="0" /><path
             d="M 3632.46,1091.07 3207.88,772.18 3900.31,889.32 Z M 3198.74,765.898 c -0.93,0.012 -1.78,0.551 -2.15,1.422 -0.43,1 -0.12,2.149 0.74,2.809 l 433.72,325.751 h 2.82 l 273.62,-206.091 c 0.74,-0.559 1.08,-1.519 0.85,-2.43 -0.21,-0.91 -0.96,-1.597 -1.88,-1.75 l -707.32,-119.668 -0.4,-0.043"
             style="fill:#c4c2c1;fill-opacity:1;fill-rule:nonzero;stroke:none"
             id="path4162"
             inkscape:connector-curvature="0" /><path
             d="m 3203.82,766.73 659.38,-613.148 40.37,731.527 z m 661.43,-620.628 -1.58,0.628 -666.52,619.801 -0.65,2.391 1.85,1.637 707.33,119.671 1.95,-0.558 0.78,-1.883 -40.81,-739.469 c -0.05,-0.91 -0.61,-1.699 -1.46,-2.05 l -0.89,-0.168"
             style="fill:#c4c2c1;fill-opacity:1;fill-rule:nonzero;stroke:none"
             id="path4164"
             inkscape:connector-curvature="0" /><path
             d="m 6011.58,1397.44 -811.77,-510.952 262.11,990.472 550.92,-232.73 0.03,5.08 -551.62,233.03 -1.94,-0.06 -1.24,-1.51 -264.32,-998.84 c -0.25,-0.918 0.1,-1.918 0.87,-2.489 l 1.38,-0.453 1.27,0.364 814.28,512.528 0.03,5.56"
             style="fill:#c4c2c1;fill-opacity:1;fill-rule:nonzero;stroke:none"
             id="path4166"
             inkscape:connector-curvature="0" /><path
             d="m 6009.4,970.859 -803.56,-86.109 805.71,507.12 0.03,5.57 -816.82,-514.12 c -0.92,-0.582 -1.32,-1.718 -0.97,-2.75 0.34,-0.949 1.22,-1.582 2.21,-1.582 l 0.26,0.012 813.12,87.141 0.02,4.718"
             style="fill:#c4c2c1;fill-opacity:1;fill-rule:nonzero;stroke:none"
             id="path4168"
             inkscape:connector-curvature="0" /><path
             d="m 6012.87,1649.31 -539.05,227.72 540.04,-31.84 0.03,4.7 -553.41,32.62 c -1.28,0.11 -2.16,-0.69 -2.42,-1.8 -0.26,-1.12 0.31,-2.25 1.37,-2.7 l 553.41,-233.78 0.03,5.08"
             style="fill:#c4c2c1;fill-opacity:1;fill-rule:nonzero;stroke:none"
             id="path4170"
             inkscape:connector-curvature="0" /><path
             d="M 2528.89,515.801 2262.37,197.25 3055.68,517.648 Z m -274.35,-326.582 -1.89,0.972 0.1,2.879 273.24,326.578 1.79,0.832 540.08,1.899 h 0.02 c 1.11,-0.008 2.08,-0.797 2.29,-1.899 0.21,-1.101 -0.38,-2.199 -1.42,-2.621 l -813.33,-328.48 -0.88,-0.16"
             style="fill:#c4c2c1;fill-opacity:1;fill-rule:nonzero;stroke:none"
             id="path4172"
             inkscape:connector-curvature="0" /><path
             d="m 2259.12,190.879 651.52,-528.68 154.16,854.063 z m 653.12,-535.348 -1.47,0.52 -657.7,533.687 -0.84,2.172 1.44,1.828 813.32,328.473 2.36,-0.352 0.82,-2.238 -155.61,-862.16 -1.49,-1.781 -0.83,-0.149"
             style="fill:#c4c2c1;fill-opacity:1;fill-rule:nonzero;stroke:none"
             id="path4174"
             inkscape:connector-curvature="0" /><path
             d="m 3193.8,763.898 -652.87,-243.367 525.52,1.84 z M 2527.78,515.789 c -1.13,0.012 -2.1,0.82 -2.3,1.93 -0.2,1.121 0.42,2.222 1.49,2.621 l 670.95,250.109 c 0.92,0.332 1.95,0.082 2.59,-0.648 l 0.31,-2.641 -130.88,-248.219 -2.07,-1.25 -540.08,-1.902 h -0.01"
             style="fill:#c4c2c1;fill-opacity:1;fill-rule:nonzero;stroke:none"
             id="path4176"
             inkscape:connector-curvature="0" /><path
             d="m 3069.63,516.621 -154.23,-854.48 944.53,486.199 z m -157.39,-861.09 -1.39,0.457 -0.91,2.301 155.62,862.16 1.23,1.66 2.07,0.051 797.39,-371.578 1.36,-2.082 -1.27,-2.129 -953.01,-490.582 -1.09,-0.258"
             style="fill:#c4c2c1;fill-opacity:1;fill-rule:nonzero;stroke:none"
             id="path4178"
             inkscape:connector-curvature="0" /><path
             d="m 3071.09,521.121 781.69,-364.262 -653.39,607.582 z m 794.16,-375.019 -0.98,0.218 -797.39,371.59 -1.24,1.379 0.15,1.84 130.88,248.211 1.68,1.219 2,-0.59 666.51,-619.797 c 0.85,-0.793 1,-2.07 0.35,-3.031 l -1.96,-1.039"
             style="fill:#c4c2c1;fill-opacity:1;fill-rule:nonzero;stroke:none"
             id="path4180"
             inkscape:connector-curvature="0" /><path
             d="m 6006.91,483.172 -276.09,102.84 277.43,159.218 0.03,5.43 -284.13,-163.07 c -0.8,-0.449 -1.25,-1.32 -1.18,-2.231 0.07,-0.898 0.67,-1.679 1.53,-2.007 l 282.39,-105.18 0.02,5"
             style="fill:#c4c2c1;fill-opacity:1;fill-rule:nonzero;stroke:none"
             id="path4182"
             inkscape:connector-curvature="0" /><path
             d="m 3546.22,2336.52 -1.94,1.04 c -0.73,1.08 -0.43,2.54 0.65,3.26 l 541.91,362.42 c 1.07,0.72 2.53,0.43 3.25,-0.65 0.73,-1.07 0.43,-2.53 -0.64,-3.25 l -541.92,-362.42 -1.31,-0.4"
             style="fill:#c4c2c1;fill-opacity:1;fill-rule:nonzero;stroke:none"
             id="path4184"
             inkscape:connector-curvature="0" /><path
             d="m 3551.67,2339.68 534.53,-160.91 -0.4,518.13 z m 536.87,-166.42 -0.66,0.1 -542.33,163.26 c -0.87,0.27 -1.51,1 -1.64,1.9 l 1.02,2.3 541.91,362.42 2.4,0.12 1.25,-2.07 0.4,-525.68 -0.94,-1.88 -1.41,-0.47"
             style="fill:#c4c2c1;fill-opacity:1;fill-rule:nonzero;stroke:none"
             id="path4186"
             inkscape:connector-curvature="0" /><path
             d="m 4090.49,2697.39 0.4,-518.16 530.51,238.03 z m -1.95,-524.13 -1.27,0.38 -1.06,1.97 -0.41,525.68 1.13,2.01 2.31,0.06 538.62,-284.2 1.25,-2.15 -1.39,-2.06 -538.21,-241.48 -0.97,-0.21"
             style="fill:#c4c2c1;fill-opacity:1;fill-rule:nonzero;stroke:none"
             id="path4188"
             inkscape:connector-curvature="0" /><path
             d="m 4091.04,2702.41 532.22,-280.82 -253.82,1053.97 z m 535.7,-287.67 -1.08,0.28 -538.61,284.19 c -1.04,0.55 -1.52,1.77 -1.12,2.88 l 281.74,782.43 c 0.35,0.97 1.34,1.68 2.33,1.54 1.04,-0.05 1.92,-0.78 2.16,-1.79 l 256.88,-1066.63 -0.84,-2.41 -1.46,-0.49"
             style="fill:#c4c2c1;fill-opacity:1;fill-rule:nonzero;stroke:none"
             id="path4190"
             inkscape:connector-curvature="0" /><path
             d="m 6005.25,157.84 -517.35,-349.25 238.33,771.969 279.34,-359.45 0.04,7.602 -278.45,358.289 -2.27,0.859 -1.82,-1.609 -241.62,-782.641 c -0.29,-0.949 0.04,-1.98 0.84,-2.578 l 1.39,-0.461 1.32,0.399 520.22,351.191 0.03,5.68"
             style="fill:#c4c2c1;fill-opacity:1;fill-rule:nonzero;stroke:none"
             id="path4192"
             inkscape:connector-curvature="0" /><path
             d="m 6002.8,-323.621 -513.43,127.543 515.85,348.238 0.03,5.68 -522.87,-352.969 c -0.77,-0.531 -1.16,-1.449 -1,-2.371 0.17,-0.898 0.85,-1.641 1.74,-1.859 l 519.65,-129.09 0.03,4.828"
             style="fill:#c4c2c1;fill-opacity:1;fill-rule:nonzero;stroke:none"
             id="path4194"
             inkscape:connector-curvature="0" /><path
             d="m 6005.61,228.711 -273.38,351.758 274.66,-102.297 0.02,5 -280.78,104.578 c -0.98,0.371 -2.09,0.039 -2.71,-0.809 l 0.03,-2.82 282.12,-363.012 0.04,7.602"
             style="fill:#c4c2c1;fill-opacity:1;fill-rule:nonzero;stroke:none"
             id="path4196"
             inkscape:connector-curvature="0" /><path
             d="m 4706.55,1724.37 c -17.17,0.09 -31.16,-13.75 -31.25,-30.92 -0.09,-17.17 13.76,-31.16 30.93,-31.24 17.16,-0.09 31.16,13.76 31.25,30.92 0.08,17.17 -13.76,31.16 -30.93,31.24"
             style="fill:#c4c2c1;fill-opacity:1;fill-rule:nonzero;stroke:none"
             id="path4198"
             inkscape:connector-curvature="0" /><path
             d="m 4706.6,1733.76 c -22.32,0.12 -40.57,-17.94 -40.69,-40.26 -0.1,-22.32 17.95,-40.57 40.27,-40.68 22.32,-0.11 40.56,17.95 40.68,40.27 0.12,22.31 -17.95,40.56 -40.26,40.67 z m -0.05,-9.39 c 17.17,-0.08 31.01,-14.07 30.93,-31.24 -0.09,-17.16 -14.09,-31.01 -31.25,-30.92 -17.17,0.08 -31.02,14.07 -30.93,31.24 0.09,17.17 14.08,31.01 31.25,30.92"
             style="fill:#211d1d;fill-opacity:1;fill-rule:nonzero;stroke:none"
             id="path4200"
             inkscape:connector-curvature="0" /><path
             d="m 5131.09,1877.21 c 0.04,7.35 -5.9,13.34 -13.24,13.38 -7.36,0.03 -13.35,-5.9 -13.38,-13.25 -0.04,-7.35 5.89,-13.34 13.24,-13.38 7.34,-0.03 13.34,5.89 13.38,13.25"
             style="fill:#c4c2c1;fill-opacity:1;fill-rule:nonzero;stroke:none"
             id="path4202"
             inkscape:connector-curvature="0" /><path
             d="m 5117.9,1899.97 c -12.52,0.07 -22.76,-10.06 -22.83,-22.58 -0.06,-12.52 10.07,-22.75 22.59,-22.81 12.52,-0.07 22.75,10.06 22.81,22.58 0.06,12.51 -10.06,22.75 -22.57,22.81 z m -0.05,-9.38 c 7.34,-0.04 13.28,-6.03 13.24,-13.38 -0.04,-7.36 -6.04,-13.28 -13.38,-13.25 -7.35,0.04 -13.28,6.03 -13.24,13.38 0.03,7.35 6.02,13.28 13.38,13.25"
             style="fill:#211d1d;fill-opacity:1;fill-rule:nonzero;stroke:none"
             id="path4204"
             inkscape:connector-curvature="0" /><path
             d="m 5458.75,2172.87 c 16.92,-0.08 30.7,13.56 30.79,30.47 0.08,16.93 -13.56,30.7 -30.47,30.79 -16.93,0.09 -30.71,-13.55 -30.79,-30.47 -0.09,-16.92 13.55,-30.7 30.47,-30.79"
             style="fill:#c4c2c1;fill-opacity:1;fill-rule:nonzero;stroke:none"
             id="path4206"
             inkscape:connector-curvature="0" /><path
             d="m 5459.11,2243.52 c -22.06,0.11 -40.1,-17.75 -40.22,-39.81 -0.11,-22.07 17.75,-40.11 39.82,-40.23 22.06,-0.1 40.1,17.75 40.21,39.82 0.12,22.06 -17.74,40.1 -39.81,40.22 z m -0.04,-9.39 c 16.91,-0.09 30.55,-13.86 30.47,-30.79 -0.09,-16.91 -13.87,-30.55 -30.79,-30.47 -16.92,0.09 -30.56,13.87 -30.47,30.79 0.08,16.92 13.86,30.56 30.79,30.47"
             style="fill:#211d1d;fill-opacity:1;fill-rule:nonzero;stroke:none"
             id="path4208"
             inkscape:connector-curvature="0" /><path
             d="m 4066.93,963.621 c -15.28,0.078 -27.74,-12.25 -27.81,-27.531 -0.08,-15.289 12.24,-27.738 27.53,-27.82 15.28,-0.079 27.74,12.25 27.82,27.539 0.08,15.281 -12.26,27.73 -27.54,27.812"
             style="fill:#c4c2c1;fill-opacity:1;fill-rule:nonzero;stroke:none"
             id="path4210"
             inkscape:connector-curvature="0" /><path
             d="m 4066.98,973.012 c -20.43,0.097 -37.15,-16.442 -37.25,-36.883 -0.11,-20.43 16.44,-37.141 36.87,-37.238 20.44,-0.11 37.15,16.429 37.25,36.871 0.11,20.429 -16.43,37.136 -36.87,37.25 z m -0.05,-9.391 c 15.28,-0.082 27.62,-12.531 27.54,-27.812 -0.08,-15.289 -12.54,-27.618 -27.82,-27.539 -15.29,0.082 -27.61,12.531 -27.53,27.82 0.07,15.281 12.53,27.609 27.81,27.531"
             style="fill:#211d1d;fill-opacity:1;fill-rule:nonzero;stroke:none"
             id="path4212"
             inkscape:connector-curvature="0" /><path
             d="m 4921.79,362.68 c -9.53,0.039 -17.29,-7.641 -17.34,-17.168 -0.05,-9.524 7.63,-17.293 17.17,-17.34 9.53,-0.051 17.29,7.637 17.34,17.168 0.05,9.519 -7.64,17.289 -17.17,17.34"
             style="fill:#c4c2c1;fill-opacity:1;fill-rule:nonzero;stroke:none"
             id="path4214"
             inkscape:connector-curvature="0" /><path
             d="m 4921.84,372.07 c -14.69,0.071 -26.7,-11.82 -26.78,-26.511 -0.06,-14.688 11.82,-26.7 26.51,-26.778 14.68,-0.07 26.7,11.821 26.77,26.508 0.08,14.691 -11.81,26.699 -26.5,26.781 z m -0.05,-9.39 c 9.53,-0.051 17.22,-7.821 17.17,-17.34 -0.05,-9.531 -7.81,-17.219 -17.34,-17.168 -9.54,0.047 -17.21,7.816 -17.17,17.34 0.05,9.527 7.81,17.207 17.34,17.168"
             style="fill:#211d1d;fill-opacity:1;fill-rule:nonzero;stroke:none"
             id="path4216"
             inkscape:connector-curvature="0" /><path
             d="m 5503.59,678.238 c -18.45,0.09 -33.48,-14.777 -33.58,-33.226 -0.09,-18.453 14.79,-33.481 33.24,-33.571 18.44,-0.101 33.47,14.778 33.57,33.231 0.09,18.449 -14.78,33.469 -33.23,33.566"
             style="fill:#c4c2c1;fill-opacity:1;fill-rule:nonzero;stroke:none"
             id="path4218"
             inkscape:connector-curvature="0" /><path
             d="m 5503.64,687.629 c -23.6,0.121 -42.89,-18.981 -43.01,-42.57 -0.12,-23.598 18.97,-42.887 42.57,-43.008 23.59,-0.121 42.89,18.98 43.01,42.57 0.11,23.59 -18.98,42.879 -42.57,43.008 z m -0.05,-9.391 c 18.45,-0.097 33.32,-15.117 33.23,-33.566 -0.1,-18.453 -15.13,-33.332 -33.57,-33.231 -18.45,0.09 -33.33,15.118 -33.24,33.571 0.1,18.449 15.13,33.316 33.58,33.226"
             style="fill:#211d1d;fill-opacity:1;fill-rule:nonzero;stroke:none"
             id="path4220"
             inkscape:connector-curvature="0" /><path
             d="m 1451.5,60.5313 c -7.59,0.039 -13.77,-6.0821 -13.81,-13.6602 -0.04,-7.5898 6.08,-13.7695 13.67,-13.8125 7.59,-0.0391 13.77,6.082 13.81,13.6602 0.04,7.5898 -6.08,13.7734 -13.67,13.8125"
             style="fill:#c4c2c1;fill-opacity:1;fill-rule:nonzero;stroke:none"
             id="path4222"
             inkscape:connector-curvature="0" /><path
             d="m 1451.55,69.9219 c -12.75,0.0664 -23.18,-10.2617 -23.24,-23.0117 -0.07,-12.7383 10.25,-23.1719 23,-23.2383 12.75,-0.0703 23.18,10.2578 23.25,23.0078 0.06,12.75 -10.26,23.1719 -23.01,23.2422 z m -0.05,-9.3906 c 7.59,-0.0391 13.71,-6.2227 13.67,-13.8125 -0.04,-7.5782 -6.22,-13.6993 -13.81,-13.6602 -7.59,0.043 -13.71,6.2227 -13.67,13.8125 0.04,7.5781 6.22,13.6992 13.81,13.6602"
             style="fill:#211d1d;fill-opacity:1;fill-rule:nonzero;stroke:none"
             id="path4224"
             inkscape:connector-curvature="0" /><path
             d="m 2117.04,458.719 c -12.27,0.062 -22.27,-9.84 -22.33,-22.11 -0.07,-12.269 9.83,-22.269 22.1,-22.328 12.27,-0.062 22.27,9.84 22.33,22.098 0.06,12.269 -9.83,22.269 -22.1,22.34"
             style="fill:#c4c2c1;fill-opacity:1;fill-rule:nonzero;stroke:none"
             id="path4226"
             inkscape:connector-curvature="0" /><path
             d="m 2117.08,468.102 c -17.42,0.089 -31.67,-14.012 -31.76,-31.442 -0.09,-17.43 14.02,-31.672 31.44,-31.769 17.43,-0.09 31.68,14.019 31.77,31.449 0.09,17.422 -14.02,31.672 -31.45,31.762 z m -0.04,-9.383 c 12.27,-0.071 22.16,-10.071 22.1,-22.34 -0.06,-12.258 -10.06,-22.16 -22.33,-22.098 -12.27,0.059 -22.17,10.059 -22.1,22.328 0.06,12.27 10.06,22.172 22.33,22.11"
             style="fill:#211d1d;fill-opacity:1;fill-rule:nonzero;stroke:none"
             id="path4228"
             inkscape:connector-curvature="0" /><path
             d="m 3417.23,1855.17 c -7.41,0.04 -13.44,-5.94 -13.48,-13.34 -0.04,-7.41 5.94,-13.45 13.34,-13.49 7.41,-0.03 13.45,5.94 13.49,13.35 0.04,7.41 -5.94,13.44 -13.35,13.48"
             style="fill:#c4c2c1;fill-opacity:1;fill-rule:nonzero;stroke:none"
             id="path4230"
             inkscape:connector-curvature="0" /><path
             d="m 3417.28,1864.56 c -12.57,0.06 -22.85,-10.12 -22.91,-22.69 -0.07,-12.57 10.11,-22.85 22.68,-22.91 12.57,-0.06 22.85,10.11 22.92,22.68 0.06,12.57 -10.12,22.85 -22.69,22.92 z m -0.05,-9.39 c 7.41,-0.04 13.39,-6.07 13.35,-13.48 -0.04,-7.41 -6.08,-13.38 -13.49,-13.35 -7.4,0.04 -13.38,6.08 -13.34,13.49 0.04,7.4 6.07,13.38 13.48,13.34"
             style="fill:#211d1d;fill-opacity:1;fill-rule:nonzero;stroke:none"
             id="path4232"
             inkscape:connector-curvature="0" /><path
             d="m 4204.49,1310.07 c -16.89,0.09 -30.65,-13.53 -30.74,-30.42 -0.08,-16.89 13.54,-30.65 30.42,-30.73 16.89,-0.09 30.65,13.53 30.74,30.42 0.09,16.89 -13.54,30.65 -30.42,30.73"
             style="fill:#c4c2c1;fill-opacity:1;fill-rule:nonzero;stroke:none"
             id="path4234"
             inkscape:connector-curvature="0" /><path
             d="m 4204.54,1319.46 c -22.04,0.11 -40.06,-17.73 -40.17,-39.76 -0.12,-22.04 17.72,-40.06 39.76,-40.17 22.03,-0.11 40.05,17.73 40.16,39.76 0.12,22.04 -17.72,40.06 -39.75,40.17 z m -0.05,-9.39 c 16.88,-0.08 30.51,-13.84 30.42,-30.73 -0.09,-16.89 -13.85,-30.51 -30.74,-30.42 -16.88,0.08 -30.5,13.84 -30.42,30.73 0.09,16.89 13.85,30.51 30.74,30.42"
             style="fill:#211d1d;fill-opacity:1;fill-rule:nonzero;stroke:none"
             id="path4236"
             inkscape:connector-curvature="0" /><path
             d="m 3608.29,1195.18 c 8.42,-0.05 15.29,6.75 15.33,15.17 0.04,8.42 -6.75,15.29 -15.18,15.33 -8.43,0.05 -15.29,-6.75 -15.33,-15.17 -0.04,-8.43 6.75,-15.29 15.18,-15.33"
             style="fill:#c4c2c1;fill-opacity:1;fill-rule:nonzero;stroke:none"
             id="path4238"
             inkscape:connector-curvature="0" /><path
             d="m 3608.49,1235.07 c -13.58,0.07 -24.7,-10.93 -24.76,-24.51 -0.07,-13.59 10.92,-24.7 24.51,-24.77 13.58,-0.07 24.69,10.93 24.76,24.51 0.07,13.59 -10.92,24.7 -24.51,24.77 z m -0.05,-9.39 c 8.43,-0.04 15.23,-6.91 15.18,-15.33 -0.04,-8.42 -6.91,-15.22 -15.33,-15.17 -8.43,0.04 -15.22,6.9 -15.18,15.33 0.04,8.42 6.9,15.22 15.33,15.17"
             style="fill:#211d1d;fill-opacity:1;fill-rule:nonzero;stroke:none"
             id="path4240"
             inkscape:connector-curvature="0" /><path
             d="m 3632.54,1111.25 c -9.52,0.05 -17.27,-7.63 -17.32,-17.16 -0.05,-9.52 7.63,-17.28 17.15,-17.33 9.52,-0.05 17.28,7.63 17.33,17.16 0.05,9.52 -7.63,17.28 -17.16,17.33"
             style="fill:#c4c2c1;fill-opacity:1;fill-rule:nonzero;stroke:none"
             id="path4242"
             inkscape:connector-curvature="0" /><path
             d="m 3632.59,1120.63 c -14.67,0.08 -26.69,-11.81 -26.76,-26.49 -0.07,-14.68 11.81,-26.69 26.49,-26.76 14.69,-0.08 26.69,11.8 26.77,26.49 0.08,14.68 -11.81,26.69 -26.5,26.76 z m -0.05,-9.38 c 9.53,-0.05 17.21,-7.81 17.16,-17.33 -0.05,-9.53 -7.81,-17.21 -17.33,-17.16 -9.52,0.05 -17.2,7.81 -17.15,17.33 0.05,9.53 7.8,17.2 17.32,17.16"
             style="fill:#211d1d;fill-opacity:1;fill-rule:nonzero;stroke:none"
             id="path4244"
             inkscape:connector-curvature="0" /><path
             d="m 3906.14,901.422 c -7.45,0.039 -13.53,-5.981 -13.57,-13.434 -0.04,-7.457 5.98,-13.527 13.43,-13.566 7.45,-0.043 13.53,5.976 13.57,13.43 0.03,7.449 -5.98,13.527 -13.43,13.57"
             style="fill:#c4c2c1;fill-opacity:1;fill-rule:nonzero;stroke:none"
             id="path4246"
             inkscape:connector-curvature="0" /><path
             d="m 3906.19,910.801 c -12.62,0.058 -22.94,-10.153 -23,-22.762 -0.07,-12.617 10.14,-22.937 22.76,-23 12.62,-0.07 22.93,10.152 23,22.762 0.07,12.621 -10.15,22.937 -22.76,23 z m -0.05,-9.379 c 7.45,-0.043 13.46,-6.121 13.43,-13.57 -0.04,-7.454 -6.12,-13.473 -13.57,-13.43 -7.45,0.039 -13.47,6.117 -13.43,13.566 0.04,7.453 6.12,13.473 13.57,13.434"
             style="fill:#211d1d;fill-opacity:1;fill-rule:nonzero;stroke:none"
             id="path4248"
             inkscape:connector-curvature="0" /><path
             d="m 5196.14,904.801 c -12.96,0.07 -23.53,-10.391 -23.59,-23.34 -0.06,-12.961 10.38,-23.52 23.34,-23.59 12.96,-0.07 23.53,10.391 23.59,23.348 0.07,12.953 -10.38,23.519 -23.34,23.582"
             style="fill:#c4c2c1;fill-opacity:1;fill-rule:nonzero;stroke:none"
             id="path4250"
             inkscape:connector-curvature="0" /><path
             d="m 5196.19,914.191 c -18.12,0.09 -32.93,-14.57 -33.03,-32.691 -0.09,-18.109 14.57,-32.918 32.68,-33.012 18.12,-0.097 32.93,14.571 33.02,32.684 0.1,18.109 -14.56,32.93 -32.67,33.019 z m -0.05,-9.39 c 12.96,-0.063 23.41,-10.629 23.34,-23.582 -0.06,-12.957 -10.63,-23.418 -23.59,-23.348 -12.96,0.07 -23.4,10.629 -23.34,23.59 0.06,12.949 10.63,23.41 23.59,23.34"
             style="fill:#211d1d;fill-opacity:1;fill-rule:nonzero;stroke:none"
             id="path4252"
             inkscape:connector-curvature="0" /><path
             d="m 5460.48,1907.15 c -14.9,0.08 -27.04,-11.94 -27.11,-26.83 -0.07,-14.9 11.94,-27.04 26.84,-27.12 14.89,-0.07 27.03,11.94 27.11,26.84 0.08,14.9 -11.94,27.03 -26.84,27.11"
             style="fill:#c4c2c1;fill-opacity:1;fill-rule:nonzero;stroke:none"
             id="path4254"
             inkscape:connector-curvature="0" /><path
             d="m 5460.53,1916.54 c -20.05,0.1 -36.44,-16.13 -36.55,-36.18 -0.1,-20.05 16.13,-36.44 36.18,-36.54 20.05,-0.1 36.44,16.12 36.54,36.17 0.1,20.05 -16.12,36.45 -36.17,36.55 z m -0.05,-9.39 c 14.9,-0.08 26.92,-12.21 26.84,-27.11 -0.08,-14.9 -12.22,-26.91 -27.11,-26.84 -14.9,0.08 -26.91,12.22 -26.84,27.12 0.07,14.89 12.21,26.91 27.11,26.83"
             style="fill:#211d1d;fill-opacity:1;fill-rule:nonzero;stroke:none"
             id="path4256"
             inkscape:connector-curvature="0" /><path
             d="m 2254.7,220.809 c -16.16,0.082 -29.32,-12.938 -29.4,-29.098 -0.09,-16.152 12.95,-29.313 29.1,-29.402 16.15,-0.079 29.32,12.953 29.4,29.101 0.08,16.16 -12.95,29.32 -29.1,29.399"
             style="fill:#c4c2c1;fill-opacity:1;fill-rule:nonzero;stroke:none"
             id="path4258"
             inkscape:connector-curvature="0" /><path
             d="m 2254.75,230.199 c -21.31,0.11 -38.73,-17.14 -38.84,-38.437 -0.1,-21.313 17.14,-38.723 38.44,-38.84 21.3,-0.102 38.73,17.137 38.83,38.449 0.11,21.301 -17.13,38.719 -38.43,38.828 z m -0.05,-9.39 c 16.15,-0.079 29.18,-13.239 29.1,-29.399 -0.08,-16.148 -13.25,-29.18 -29.4,-29.101 -16.15,0.089 -29.19,13.25 -29.1,29.402 0.08,16.16 13.24,29.18 29.4,29.098"
             style="fill:#211d1d;fill-opacity:1;fill-rule:nonzero;stroke:none"
             id="path4260"
             inkscape:connector-curvature="0" /><path
             d="m 2544.63,518.051 c 0.05,9.301 -7.45,16.879 -16.75,16.929 -9.31,0.051 -16.88,-7.46 -16.93,-16.761 -0.05,-9.297 7.45,-16.879 16.76,-16.93 9.3,-0.039 16.87,7.461 16.92,16.762"
             style="fill:#c4c2c1;fill-opacity:1;fill-rule:nonzero;stroke:none"
             id="path4262"
             inkscape:connector-curvature="0" /><path
             d="m 2527.92,544.371 c -14.46,0.07 -26.28,-11.641 -26.36,-26.101 -0.08,-14.461 11.63,-26.29 26.1,-26.36 14.46,-0.07 26.29,11.629 26.36,26.09 0.07,14.469 -11.63,26.289 -26.1,26.371 z m -0.04,-9.391 c 9.3,-0.05 16.8,-7.628 16.75,-16.929 -0.05,-9.301 -7.62,-16.801 -16.92,-16.762 -9.31,0.051 -16.81,7.633 -16.76,16.93 0.04,9.301 7.62,16.812 16.93,16.761"
             style="fill:#211d1d;fill-opacity:1;fill-rule:nonzero;stroke:none"
             id="path4264"
             inkscape:connector-curvature="0" /><path
             d="m 3068,547.711 c -15.28,0.07 -27.73,-12.25 -27.81,-27.531 -0.08,-15.289 12.25,-27.739 27.53,-27.821 15.29,-0.078 27.74,12.25 27.82,27.532 0.08,15.289 -12.25,27.738 -27.54,27.82"
             style="fill:#c4c2c1;fill-opacity:1;fill-rule:nonzero;stroke:none"
             id="path4266"
             inkscape:connector-curvature="0" /><path
             d="m 3068.05,557.09 c -20.43,0.109 -37.14,-16.43 -37.24,-36.871 -0.11,-20.43 16.43,-37.137 36.87,-37.25 20.43,-0.098 37.14,16.441 37.24,36.871 0.1,20.441 -16.43,37.148 -36.87,37.25 z m -0.05,-9.379 c 15.29,-0.082 27.62,-12.531 27.54,-27.82 -0.08,-15.282 -12.53,-27.61 -27.82,-27.532 -15.28,0.082 -27.61,12.532 -27.53,27.821 0.08,15.281 12.53,27.601 27.81,27.531"
             style="fill:#211d1d;fill-opacity:1;fill-rule:nonzero;stroke:none"
             id="path4268"
             inkscape:connector-curvature="0" /><path
             d="m 3865.39,172.59 c -13.33,0.07 -24.19,-10.692 -24.26,-24.02 -0.07,-13.332 10.68,-24.191 24.01,-24.261 13.33,-0.067 24.19,10.691 24.26,24.023 0.07,13.328 -10.68,24.188 -24.01,24.258"
             style="fill:#c4c2c1;fill-opacity:1;fill-rule:nonzero;stroke:none"
             id="path4270"
             inkscape:connector-curvature="0" /><path
             d="m 3865.43,181.98 c -18.48,0.09 -33.6,-14.871 -33.7,-33.359 -0.08,-18.48 14.88,-33.601 33.36,-33.691 18.49,-0.098 33.61,14.859 33.69,33.351 0.1,18.489 -14.86,33.598 -33.35,33.699 z m -0.04,-9.39 c 13.33,-0.07 24.08,-10.93 24.01,-24.258 -0.07,-13.332 -10.93,-24.09 -24.26,-24.023 -13.33,0.07 -24.08,10.929 -24.01,24.261 0.06,13.34 10.93,24.09 24.26,24.02"
             style="fill:#211d1d;fill-opacity:1;fill-rule:nonzero;stroke:none"
             id="path4272"
             inkscape:connector-curvature="0" /><path
             d="m 3198.84,785.969 c -9.79,0.051 -17.76,-7.848 -17.81,-17.629 -0.05,-9.789 7.84,-17.758 17.63,-17.809 9.78,-0.051 17.75,7.84 17.8,17.629 0.05,9.781 -7.84,17.762 -17.62,17.809"
             style="fill:#c4c2c1;fill-opacity:1;fill-rule:nonzero;stroke:none"
             id="path4274"
             inkscape:connector-curvature="0" /><path
             d="m 3198.88,795.352 c -14.94,0.078 -27.16,-12.024 -27.24,-26.961 -0.08,-14.95 12.02,-27.172 26.97,-27.243 14.94,-0.078 27.16,12.024 27.24,26.961 0.08,14.95 -12.02,27.172 -26.97,27.243 z m -0.04,-9.383 c 9.78,-0.047 17.67,-8.028 17.62,-17.809 -0.04,-9.789 -8.02,-17.68 -17.8,-17.629 -9.79,0.051 -17.68,8.02 -17.63,17.809 0.05,9.781 8.02,17.68 17.81,17.629"
             style="fill:#211d1d;fill-opacity:1;fill-rule:nonzero;stroke:none"
             id="path4276"
             inkscape:connector-curvature="0" /><path
             d="m 3546.34,2360.06 c -11.71,0.06 -21.24,-9.38 -21.31,-21.08 -0.05,-11.71 9.38,-21.25 21.09,-21.3 11.71,-0.07 21.25,9.37 21.31,21.08 0.06,11.7 -9.39,21.24 -21.09,21.3"
             style="fill:#c4c2c1;fill-opacity:1;fill-rule:nonzero;stroke:none"
             id="path4278"
             inkscape:connector-curvature="0" /><path
             d="m 3546.39,2369.45 c -16.87,0.09 -30.65,-13.57 -30.74,-30.43 -0.09,-16.86 13.56,-30.64 30.42,-30.73 16.86,-0.09 30.65,13.56 30.74,30.42 0.09,16.86 -13.56,30.65 -30.42,30.74 z m -0.05,-9.39 c 11.7,-0.06 21.15,-9.6 21.09,-21.3 -0.06,-11.71 -9.6,-21.15 -21.31,-21.08 -11.71,0.05 -21.14,9.59 -21.09,21.3 0.06,11.7 9.6,21.14 21.31,21.08"
             style="fill:#211d1d;fill-opacity:1;fill-rule:nonzero;stroke:none"
             id="path4280"
             inkscape:connector-curvature="0" /><path
             d="m 4088.63,2191.35 c -8.69,0.04 -15.78,-6.97 -15.82,-15.67 -0.05,-8.69 6.96,-15.77 15.65,-15.82 8.7,-0.04 15.78,6.97 15.83,15.66 0.04,8.7 -6.97,15.78 -15.66,15.83"
             style="fill:#c4c2c1;fill-opacity:1;fill-rule:nonzero;stroke:none"
             id="path4282"
             inkscape:connector-curvature="0" /><path
             d="m 4088.68,2200.73 c -13.86,0.07 -25.19,-11.14 -25.27,-25 -0.07,-13.85 11.16,-25.18 25,-25.25 13.86,-0.07 25.2,11.14 25.27,25 0.07,13.85 -11.15,25.18 -25,25.25 z m -0.05,-9.38 c 8.69,-0.05 15.7,-7.13 15.66,-15.83 -0.05,-8.69 -7.13,-15.7 -15.83,-15.66 -8.69,0.05 -15.7,7.13 -15.65,15.82 0.04,8.7 7.13,15.71 15.82,15.67"
             style="fill:#211d1d;fill-opacity:1;fill-rule:nonzero;stroke:none"
             id="path4284"
             inkscape:connector-curvature="0" /><path
             d="m 4087.97,2667.4 c 18.71,-0.1 33.97,15 34.06,33.71 0.09,18.72 -14.99,33.97 -33.71,34.07 -18.72,0.09 -33.97,-15 -34.07,-33.72 -0.09,-18.72 15,-33.96 33.72,-34.06"
             style="fill:#c4c2c1;fill-opacity:1;fill-rule:nonzero;stroke:none"
             id="path4286"
             inkscape:connector-curvature="0" /><path
             d="m 4088.36,2744.56 c -23.85,0.12 -43.36,-19.19 -43.49,-43.05 -0.12,-23.87 19.19,-43.37 43.05,-43.5 23.86,-0.12 43.37,19.2 43.5,43.06 0.12,23.86 -19.2,43.37 -43.06,43.49 z m -0.04,-9.38 c 18.71,-0.1 33.8,-15.35 33.71,-34.07 -0.09,-18.71 -15.35,-33.81 -34.06,-33.71 -18.72,0.1 -33.81,15.34 -33.72,34.06 0.1,18.72 15.35,33.81 34.07,33.72"
             style="fill:#211d1d;fill-opacity:1;fill-rule:nonzero;stroke:none"
             id="path4288"
             inkscape:connector-curvature="0" /><path
             d="m 4626.84,2434.39 c -9.55,0.04 -17.33,-7.66 -17.38,-17.21 -0.05,-9.55 7.65,-17.34 17.21,-17.38 9.55,-0.05 17.33,7.65 17.38,17.2 0.05,9.55 -7.66,17.34 -17.21,17.39"
             style="fill:#c4c2c1;fill-opacity:1;fill-rule:nonzero;stroke:none"
             id="path4290"
             inkscape:connector-curvature="0" /><path
             d="m 4626.89,2443.77 c -14.71,0.08 -26.74,-11.83 -26.82,-26.54 -0.07,-14.71 11.84,-26.75 26.55,-26.82 14.71,-0.08 26.74,11.83 26.82,26.54 0.07,14.71 -11.83,26.75 -26.55,26.82 z m -0.05,-9.38 c 9.56,-0.05 17.26,-7.84 17.21,-17.39 -0.05,-9.55 -7.83,-17.25 -17.38,-17.2 -9.56,0.04 -17.26,7.83 -17.21,17.38 0.05,9.55 7.83,17.25 17.38,17.21"
             style="fill:#211d1d;fill-opacity:1;fill-rule:nonzero;stroke:none"
             id="path4292"
             inkscape:connector-curvature="0" /><path
             d="m 5725.42,607.922 c -12.34,0.058 -22.41,-9.902 -22.47,-22.25 -0.06,-12.352 9.9,-22.41 22.25,-22.481 12.34,-0.062 22.41,9.899 22.47,22.25 0.07,12.348 -9.89,22.411 -22.25,22.481"
             style="fill:#c4c2c1;fill-opacity:1;fill-rule:nonzero;stroke:none"
             id="path4294"
             inkscape:connector-curvature="0" /><path
             d="m 5725.47,617.301 c -17.5,0.09 -31.81,-14.082 -31.9,-31.582 -0.1,-17.508 14.07,-31.821 31.58,-31.91 17.5,-0.09 31.82,14.082 31.91,31.589 0.09,17.5 -14.08,31.813 -31.59,31.903 z m -0.05,-9.379 c 12.36,-0.07 22.32,-10.133 22.25,-22.481 -0.06,-12.351 -10.13,-22.312 -22.47,-22.25 -12.35,0.071 -22.31,10.129 -22.25,22.481 0.06,12.348 10.13,22.308 22.47,22.25"
             style="fill:#211d1d;fill-opacity:1;fill-rule:nonzero;stroke:none"
             id="path4296"
             inkscape:connector-curvature="0" /></g></g></g><flowRoot
       xml:space="preserve"
       id="flowRoot4438"
       style="fill:black;fill-opacity:1;stroke:none;font-family:sans-serif;font-style:normal;font-weight:normal;font-size:40px;line-height:1.25;letter-spacing:0px;word-spacing:0px"><flowRegion
         id="flowRegion4440"><rect
           id="rect4442"
           width="316.22888"
           height="59.732121"
           x="105.40962"
           y="194.25488" /></flowRegion><flowPara
         id="flowPara4444"></flowPara></flowRoot></g></svg>